<?xml version="1.0" encoding="UTF-8"?>
<svg fill="#000" width="700pt" height="700pt" version="1.1" viewBox="0 0 700 500" xmlns="http://www.w3.org/2000/svg" xmlns:xlink="http://www.w3.org/1999/xlink">
   <path d="m546 100.8c15.465 0 28 12.535 28 28 0 15.465-12.535 28-28 28h-392c-15.465 0-28-12.535-28-28 0-15.465 12.535-28 28-28zm0 151.2c15.465 0 28 12.535 28 28s-12.535 28-28 28h-392c-15.465 0-28-12.535-28-28s12.535-28 28-28zm0 151.2c15.465 0 28 12.535 28 28 0 15.465-12.535 28-28 28h-392c-15.465 0-28-12.535-28-28 0-15.465 12.535-28 28-28z"/>
</svg>
